<?xml version="1.0" standalone="no"?>
<!DOCTYPE svg PUBLIC "-//W3C//DTD SVG 20010904//EN"
 "http://www.w3.org/TR/2001/REC-SVG-20010904/DTD/svg10.dtd">
<svg version="1.0" xmlns="http://www.w3.org/2000/svg"
 width="1080.000000pt" height="1080.000000pt" viewBox="0 0 1080.000000 1080.000000"
 preserveAspectRatio="xMidYMid meet">

<g transform="translate(0.000000,1080.000000) scale(0.100000,-0.100000)"
fill="#000000" stroke="none">
<path d="M4650 7135 l0 -205 -24 0 c-13 0 -88 7 -167 15 -124 13 -164 14 -148
2 4 -3 819 -358 840 -365 5 -2 9 81 9 187 l0 191 118 0 c171 0 368 -17 458
-40 207 -52 367 -187 434 -366 28 -77 39 -194 28 -305 -5 -52 -10 -104 -11
-117 -2 -20 21 -32 227 -122 127 -55 235 -100 242 -100 13 0 39 58 49 111 l6
34 -175 79 c-97 43 -176 82 -176 87 0 5 3 9 6 9 4 0 119 -48 256 -106 200 -86
252 -104 259 -93 15 24 11 27 -68 59 l-78 32 0 161 c-1 134 -5 178 -23 252
-80 317 -260 539 -560 690 -99 49 -165 71 -289 95 -96 19 -144 20 -659 20
l-554 0 0 -205z"/>
<path d="M3792 6761 c2 -16 63 -50 286 -158 279 -135 282 -137 282 -167 l0
-31 388 -177 c214 -98 396 -180 405 -184 15 -5 17 2 17 53 l0 58 -671 310
c-369 171 -679 311 -690 313 -16 3 -20 -1 -17 -17z"/>
<path d="M4650 6504 l0 -65 253 -124 c138 -67 256 -119 260 -115 5 4 5 38 0
75 l-8 68 -244 113 c-135 63 -248 114 -253 114 -4 0 -8 -30 -8 -66z"/>
<path d="M4653 5774 c3 -256 8 -468 11 -471 3 -3 227 -6 498 -7 525 -1 608 5
807 55 89 23 283 100 288 114 3 9 -728 365 -748 365 -4 0 -9 -7 -13 -15 -4
-11 18 -27 82 -60 l87 -44 -250 2 -250 2 -5 144 -5 145 -249 118 c-138 65
-252 118 -255 118 -2 0 -2 -210 2 -466z"/>
<path d="M6038 5889 c-39 -49 -104 -96 -167 -119 -25 -10 -47 -22 -48 -26 -2
-5 105 -63 236 -129 272 -135 241 -131 350 -44 l60 49 303 -80 c167 -44 310
-79 318 -78 13 3 -994 468 -1012 468 -4 0 -22 -19 -40 -41z"/>
<path d="M5437 4543 c-114 -191 -203 -351 -198 -356 4 -4 43 -7 87 -5 l79 3
120 207 c101 175 122 205 132 191 7 -8 60 -100 120 -204 l107 -189 88 0 c48 0
88 3 88 6 0 6 -398 674 -410 687 -4 5 -100 -148 -213 -340z"/>
<path d="M1718 4854 c-5 -4 -8 -157 -8 -341 l0 -333 213 0 214 0 61 31 c67 33
119 87 154 158 19 38 23 62 22 131 -2 117 -29 187 -103 261 -83 82 -114 91
-351 96 -107 3 -198 1 -202 -3z m413 -176 c112 -66 124 -229 23 -317 -41 -36
-73 -43 -189 -39 l-90 3 -3 194 -2 194 108 -5 c94 -4 115 -8 153 -30z"/>
<path d="M6338 4850 c-197 -36 -303 -146 -257 -267 13 -35 56 -82 89 -96 14
-6 111 -13 216 -16 158 -5 195 -9 217 -24 37 -24 45 -62 20 -95 -30 -40 -83
-54 -193 -50 -113 4 -159 24 -174 76 l-9 32 -93 0 c-52 0 -94 -4 -94 -8 0 -38
38 -107 77 -141 73 -65 121 -76 318 -76 190 0 222 8 299 76 46 40 66 83 66
141 0 119 -105 168 -362 168 -100 0 -138 4 -165 17 -116 55 -18 153 152 153
102 0 161 -26 188 -82 l19 -38 85 0 85 0 -7 28 c-21 86 -96 157 -198 187 -63
19 -215 27 -279 15z"/>
<path d="M8678 4850 c-197 -36 -303 -146 -257 -267 13 -35 56 -82 89 -96 14
-6 111 -13 216 -16 158 -5 195 -9 217 -24 37 -24 45 -62 20 -95 -30 -41 -83
-54 -193 -50 -113 5 -153 22 -171 73 l-13 35 -93 0 c-51 0 -93 -4 -93 -8 0
-38 38 -107 77 -141 73 -65 121 -76 318 -76 152 0 175 2 216 21 97 45 149 113
149 194 0 120 -77 159 -340 169 -144 6 -180 10 -202 25 -91 60 7 146 167 146
102 0 161 -26 188 -82 l19 -38 85 0 85 0 -7 28 c-21 86 -96 157 -198 187 -63
19 -215 27 -279 15z"/>
<path d="M2719 4827 c-163 -56 -241 -154 -241 -307 0 -94 21 -147 82 -214 85
-93 191 -131 336 -124 156 8 266 74 325 194 29 59 31 69 27 146 -5 95 -34 163
-93 223 -97 97 -288 132 -436 82z m245 -123 c103 -35 162 -130 137 -221 -16
-62 -43 -98 -99 -130 -41 -24 -58 -28 -127 -28 -62 0 -89 5 -120 22 -106 57
-143 158 -94 260 46 95 182 138 303 97z"/>
<path d="M3330 4515 l0 -335 75 0 75 0 0 125 c0 69 3 125 8 125 4 0 72 -56
152 -125 l145 -125 100 0 100 1 -178 172 -177 172 167 154 c93 85 170 158 171
163 2 4 -37 8 -87 8 l-91 0 -147 -125 c-80 -69 -150 -125 -155 -125 -4 0 -8
56 -8 125 l0 125 -75 0 -75 0 0 -335z"/>
<path d="M4050 4515 l0 -335 84 0 c47 0 87 4 91 10 3 5 3 156 -1 335 l-7 325
-84 0 -83 0 0 -335z"/>
<path d="M4450 4847 c0 -5 -40 -152 -90 -328 -49 -176 -90 -324 -90 -329 0 -6
35 -10 79 -10 67 0 81 3 85 18 3 9 21 87 41 171 20 85 37 156 38 158 2 1 48
-75 103 -169 56 -95 105 -173 110 -175 5 -1 54 77 109 174 l100 177 22 -99
c13 -55 31 -134 41 -175 l17 -75 84 -3 c83 -3 83 -3 78 20 -40 152 -182 648
-186 648 -4 0 -62 -102 -131 -225 -69 -124 -128 -225 -132 -225 -3 0 -61 93
-127 208 -120 206 -150 254 -151 239z"/>
<path d="M6870 4790 l0 -60 130 0 130 0 0 -275 0 -275 75 0 75 0 0 275 0 275
125 0 125 0 0 60 0 60 -330 0 -330 0 0 -60z"/>
<path d="M7655 4837 c-3 -7 -4 -158 -3 -337 l3 -325 330 0 330 0 3 58 3 57
-261 0 -261 0 3 88 3 87 223 3 222 2 0 50 0 50 -222 2 -223 3 0 75 0 75 252 3
251 2 4 53 c3 28 3 55 1 60 -2 4 -150 7 -329 7 -252 0 -326 -3 -329 -13z"/>
<path d="M5589 4266 c-26 -56 20 -108 77 -89 34 11 49 49 35 86 -9 24 -16 27
-56 27 -38 0 -47 -4 -56 -24z"/>
<path d="M2000 3941 l35 -6 5 -95 4 -95 6 95 5 95 35 6 c23 4 6 6 -45 6 -51 0
-68 -2 -45 -6z"/>
<path d="M2322 3853 l3 -98 58 -3 c35 -2 57 1 57 8 0 5 -22 10 -50 10 l-50 0
0 39 0 40 48 4 47 3 -47 2 -48 2 0 39 0 40 53 4 52 3 -63 2 -63 2 3 -97z"/>
<path d="M2687 3932 c-10 -10 -17 -25 -17 -34 0 -19 32 -48 52 -48 29 0 61
-34 54 -57 -8 -24 -37 -34 -80 -27 -24 4 -28 3 -16 -5 24 -17 75 -13 94 8 30
33 17 63 -36 89 -32 15 -48 29 -48 41 0 30 25 44 66 36 24 -4 34 -3 29 4 -11
18 -80 13 -98 -7z"/>
<path d="M3020 3941 l35 -6 5 -95 4 -95 6 95 5 95 35 6 c23 4 6 6 -45 6 -51 0
-68 -2 -45 -6z"/>
<path d="M3354 3850 c0 -58 1 -81 3 -52 2 28 2 76 0 105 -2 28 -3 5 -3 -53z"/>
<path d="M3592 3848 l2 -103 5 89 6 90 54 -80 c30 -43 58 -83 63 -88 4 -6 7
37 6 95 l-2 104 -5 -85 -6 -85 -58 83 c-32 45 -61 82 -63 82 -2 0 -3 -46 -2
-102z"/>
<path d="M3988 3927 c-43 -40 -47 -107 -10 -149 18 -21 72 -33 107 -24 22 6
25 12 25 51 0 44 0 45 -32 44 -24 -1 -27 -3 -10 -6 18 -4 22 -11 22 -39 0 -39
-16 -50 -55 -40 -88 22 -88 150 0 172 14 3 34 4 45 1 11 -3 20 -1 20 4 0 5
-20 9 -44 9 -31 0 -50 -6 -68 -23z"/>
<path d="M4532 3935 c26 -100 53 -185 59 -185 5 0 13 18 19 40 5 22 15 59 21
82 13 50 18 43 44 -54 10 -38 21 -68 25 -68 9 0 64 189 57 196 -5 5 -24 -54
-42 -128 -4 -16 -10 -28 -14 -28 -3 0 -16 35 -27 78 -11 42 -24 77 -29 77 -5
0 -18 -38 -30 -85 -12 -46 -23 -80 -27 -75 -3 6 -13 42 -23 80 -10 39 -23 75
-28 80 -6 7 -8 3 -5 -10z"/>
<path d="M5000 3850 c0 -60 4 -100 10 -100 6 0 10 40 10 100 0 60 -4 100 -10
100 -6 0 -10 -40 -10 -100z"/>
<path d="M5253 3943 l37 -4 2 -97 2 -97 5 95 6 95 35 6 c22 4 5 6 -45 6 -44 0
-63 -2 -42 -4z"/>
<path d="M5584 3850 c0 -58 1 -81 3 -52 l4 52 55 0 54 0 0 -50 c0 -27 5 -50
10 -50 6 0 10 40 10 100 0 60 -4 100 -10 100 -5 0 -10 -20 -10 -45 l0 -45 -54
0 -55 0 -4 48 c-2 26 -3 0 -3 -58z"/>
<path d="M5995 3925 c-43 -42 -30 -140 22 -164 38 -18 72 -13 98 14 20 19 25
34 25 75 0 41 -5 56 -25 75 -33 34 -87 34 -120 0z m102 0 c30 -21 40 -78 20
-120 -20 -42 -60 -54 -96 -28 -86 65 -12 209 76 148z"/>
<path d="M6381 3871 c5 -92 22 -121 74 -121 52 0 69 29 74 121 2 53 0 79 -8
79 -7 0 -11 -28 -11 -80 0 -75 -2 -81 -26 -97 -24 -15 -29 -15 -53 -2 -24 14
-26 20 -29 97 -2 49 -7 82 -13 82 -7 0 -10 -28 -8 -79z"/>
<path d="M6760 3941 l35 -6 5 -95 4 -95 6 95 5 95 35 6 c23 4 6 6 -45 6 -51 0
-68 -2 -45 -6z"/>
<path d="M7272 3853 l-2 -103 55 0 c30 0 55 5 55 10 0 6 -22 10 -50 10 l-49 0
-4 93 -3 92 -2 -102z"/>
<path d="M7580 3850 c0 -60 4 -100 10 -100 6 0 10 40 10 100 0 60 -4 100 -10
100 -6 0 -10 -40 -10 -100z"/>
<path d="M7800 3850 c0 -121 18 -135 22 -18 l3 82 34 -82 c18 -45 36 -82 40
-82 3 0 22 39 41 87 l35 87 6 -89 5 -90 2 103 c1 56 -2 102 -7 102 -5 0 -23
-36 -41 -80 -18 -44 -36 -82 -40 -85 -4 -2 -22 34 -41 80 -46 115 -59 111 -59
-15z"/>
<path d="M8224 3850 c0 -58 1 -81 3 -52 2 28 2 76 0 105 -2 28 -3 5 -3 -53z"/>
<path d="M8460 3941 l35 -6 5 -95 4 -95 6 95 5 95 35 6 c23 4 6 6 -45 6 -51 0
-68 -2 -45 -6z"/>
<path d="M8796 3937 c-12 -9 -17 -23 -14 -42 2 -25 10 -32 48 -46 35 -13 46
-22 48 -42 4 -33 -27 -51 -70 -42 -21 5 -28 4 -24 -4 10 -16 68 -13 94 5 12 8
22 26 22 39 0 25 -33 55 -62 55 -17 0 -48 25 -48 40 0 23 35 42 67 37 18 -3
33 -2 33 4 0 14 -74 11 -94 -4z"/>
</g>
</svg>
